<?xml version="1.0" standalone="no"?>
<!DOCTYPE svg PUBLIC "-//W3C//DTD SVG 20010904//EN"
 "http://www.w3.org/TR/2001/REC-SVG-20010904/DTD/svg10.dtd">
<svg version="1.0" xmlns="http://www.w3.org/2000/svg"
 width="776.000000pt" height="776.000000pt" viewBox="0 0 776.000000 776.000000"
 preserveAspectRatio="xMidYMid meet">
<metadata>
Created by potrace 1.14, written by Peter Selinger 2001-2017
</metadata>
<g transform="translate(0.000000,776.000000) scale(0.100000,-0.100000)"
fill="#000000" stroke="none">
<path d="M1201 7265 c-40 -7 -85 -18 -100 -23 -14 -5 -52 -18 -83 -28 -32 -10
-58 -22 -58 -28 0 -5 -3 -7 -6 -3 -10 10 -130 -55 -199 -108 -11 -9 -33 -26
-49 -38 -195 -146 -356 -429 -391 -687 -8 -58 -7 -289 1 -302 4 -5 8 -24 9
-41 3 -44 26 -129 38 -144 5 -7 7 -13 4 -13 -6 0 13 -48 50 -130 26 -55 109
-180 158 -236 23 -27 88 -104 146 -174 34 -41 71 -86 83 -100 41 -48 262 -315
326 -395 36 -44 75 -91 87 -105 13 -14 23 -28 23 -32 0 -3 6 -13 13 -20 7 -7
57 -71 111 -143 53 -71 102 -137 109 -145 7 -8 33 -44 58 -80 25 -36 62 -89
83 -119 21 -30 62 -89 89 -130 28 -42 55 -80 59 -86 5 -5 27 -39 50 -75 23
-36 45 -66 50 -68 4 -2 8 -8 8 -13 0 -6 20 -40 44 -77 44 -69 176 -286 216
-357 13 -22 44 -78 70 -125 26 -47 58 -103 70 -125 51 -89 260 -516 260 -530
0 -2 11 -28 25 -57 13 -29 37 -87 53 -128 16 -41 33 -84 37 -95 5 -11 9 -22
10 -25 0 -3 18 -56 38 -118 50 -150 86 -313 92 -415 12 -201 16 -237 35 -317
118 -489 566 -835 1067 -824 295 6 539 108 744 313 133 132 209 254 267 426
38 115 48 181 56 370 3 55 7 107 10 115 3 8 7 31 10 50 4 30 24 117 43 185 3
11 6 30 7 42 0 12 3 19 5 17 3 -2 21 44 41 103 21 60 43 122 50 138 7 17 16
39 21 50 4 11 28 69 53 128 26 60 43 114 39 120 -3 7 -3 9 2 5 4 -4 58 93 119
215 138 274 193 374 371 672 39 65 41 68 102 164 24 36 43 72 43 79 0 6 4 12
9 12 4 0 24 26 44 58 19 31 88 134 153 227 64 94 117 175 117 182 0 7 4 10 8
7 5 -2 15 8 23 23 8 15 29 44 45 63 17 19 31 38 31 41 0 4 13 22 30 40 16 19
28 40 25 47 -3 7 -1 11 4 8 5 -3 31 24 57 60 27 36 57 75 67 85 9 10 17 23 17
28 0 5 4 11 8 13 4 2 55 61 112 133 58 71 110 135 115 141 6 6 24 28 40 49 17
21 48 58 70 83 22 25 46 54 54 65 8 12 22 28 30 37 9 8 30 33 46 54 17 21 47
58 67 81 20 23 60 70 88 106 29 35 56 66 61 67 5 2 9 10 9 17 0 7 7 16 16 19
9 4 14 9 11 12 -3 4 3 16 14 28 29 30 83 129 119 217 17 40 30 74 29 74 0 0 4
18 9 40 16 60 23 95 28 150 3 28 7 56 9 63 3 7 0 10 -5 7 -6 -4 -7 2 -2 17 8
24 8 141 -1 194 -22 132 -46 210 -103 332 -24 50 -49 92 -54 92 -6 0 -10 6
-10 14 0 36 -146 196 -252 276 -88 66 -233 144 -250 134 -6 -4 -8 -3 -5 3 4 6
-30 21 -86 36 -132 37 -138 38 -282 42 -244 7 -450 -55 -654 -196 -70 -48
-179 -151 -226 -214 -17 -22 -35 -44 -41 -50 -6 -5 -30 -35 -55 -65 -24 -30
-48 -60 -54 -66 -5 -6 -23 -28 -40 -49 -16 -21 -35 -43 -42 -50 -7 -7 -49 -57
-93 -111 -45 -55 -92 -110 -104 -124 -12 -14 -37 -45 -56 -70 -19 -25 -37 -47
-41 -50 -20 -18 -123 -156 -121 -162 1 -5 -2 -8 -7 -8 -5 0 -32 -30 -60 -67
-28 -38 -56 -75 -64 -83 -7 -8 -41 -53 -75 -100 -34 -47 -84 -114 -111 -150
-26 -36 -65 -90 -86 -120 -186 -265 -313 -453 -334 -493 -8 -15 -18 -27 -23
-27 -4 0 -8 -5 -8 -11 0 -6 -12 -26 -26 -44 -15 -20 -23 -39 -18 -46 4 -7 3
-9 -3 -6 -5 3 -46 -52 -90 -123 l-80 -129 -21 29 c-12 16 -22 32 -22 35 0 3
-27 46 -60 96 -33 50 -60 94 -60 98 0 4 -9 16 -20 26 -11 10 -20 22 -20 27 0
8 -248 380 -316 473 -8 11 -56 79 -107 150 -116 163 -167 229 -178 233 -5 2
-9 8 -9 13 0 5 -17 31 -37 57 -21 27 -47 61 -58 76 -11 16 -28 38 -37 50 -10
11 -46 57 -80 101 -34 44 -65 82 -68 85 -3 3 -34 41 -70 85 -35 44 -67 82 -70
85 -3 3 -27 32 -54 65 -28 33 -56 67 -63 75 -21 25 -236 284 -274 330 -167
207 -371 341 -614 401 -103 26 -329 33 -434 14z m-316 -374 c3 -5 2 -12 -3
-15 -5 -3 -9 1 -9 9 0 17 3 19 12 6z m495 -327 c0 -8 -19 -13 -24 -6 -3 5 1 9
9 9 8 0 15 -2 15 -3z m4800 0 c0 -8 -19 -13 -24 -6 -3 5 1 9 9 9 8 0 15 -2 15
-3z m-5133 -319 c0 -8 -4 -12 -9 -9 -5 3 -6 10 -3 15 9 13 12 11 12 -6z m1438
6 c3 -5 2 -12 -3 -15 -5 -3 -9 1 -9 9 0 17 3 19 12 6z m-958 -176 c0 -8 -4
-12 -9 -9 -5 3 -6 10 -3 15 9 13 12 11 12 -6z m3358 -304 c3 -5 2 -12 -3 -15
-5 -3 -9 1 -9 9 0 17 3 19 12 6z m2079 -169 c3 -5 -1 -9 -9 -9 -8 0 -12 4 -9
9 3 4 7 8 9 8 2 0 6 -4 9 -8z m-637 -157 c0 -8 -4 -12 -9 -9 -5 3 -6 10 -3 15
9 13 12 11 12 -6z m-3682 -4 c3 -5 2 -12 -3 -15 -5 -3 -9 1 -9 9 0 17 3 19 12
6z m2885 -157 c0 -8 -19 -13 -24 -6 -3 5 1 9 9 9 8 0 15 -2 15 -3z m-645 -473
c3 -5 2 -12 -3 -15 -5 -3 -9 1 -9 9 0 17 3 19 12 6z m-2238 -16 c0 -8 -4 -12
-9 -9 -5 3 -6 10 -3 15 9 13 12 11 12 -6z m-802 -154 c3 -5 2 -12 -3 -15 -5
-3 -9 1 -9 9 0 17 3 19 12 6z m3205 -1117 c0 -8 -19 -13 -24 -6 -3 5 1 9 9 9
8 0 15 -2 15 -3z"/>
</g>
</svg>
